<svg width="37" height="38" viewBox="0 0 37 38" fill="none" xmlns="http://www.w3.org/2000/svg">
<path d="M18.1585 21.375V4.75C14.2071 4.75065 10.3638 5.93089 7.21144 8.11171C4.05908 10.2925 1.76968 13.3549 0.690499 16.8344C-0.388684 20.3139 -0.198774 24.0207 1.23142 27.3924C2.66162 30.7642 5.25408 33.617 8.61557 35.5182C11.9771 37.4194 15.9242 38.2652 19.8583 37.9273C23.7924 37.5894 27.4987 36.0863 30.4152 33.646C33.3318 31.2056 35.2993 27.9612 36.0194 24.4047C36.7395 20.8483 36.1728 17.1739 34.4055 13.9389L18.1585 21.375ZM37 9.18887C35.4915 6.42705 33.1724 4.10444 30.3027 2.48143C27.433 0.858425 24.1262 -0.000828807 20.753 5.99879e-07V16.625L37 9.18887Z" fill="#CAA03D"/>
</svg>
