<svg width="50" height="33" viewBox="0 0 50 33" fill="none" xmlns="http://www.w3.org/2000/svg">
<path d="M25 0C13.6364 0 3.93182 6.842 0 16.5C3.93182 26.158 13.6364 33 25 33C36.3636 33 46.0682 26.158 50 16.5C46.0682 6.842 36.3636 0 25 0ZM25 27.5C18.7273 27.5 13.6364 22.572 13.6364 16.5C13.6364 10.428 18.7273 5.5 25 5.5C31.2727 5.5 36.3636 10.428 36.3636 16.5C36.3636 22.572 31.2727 27.5 25 27.5ZM25 9.9C21.2273 9.9 18.1818 12.848 18.1818 16.5C18.1818 20.152 21.2273 23.1 25 23.1C28.7727 23.1 31.8182 20.152 31.8182 16.5C31.8182 12.848 28.7727 9.9 25 9.9Z" fill="#CAA03D"/>
</svg>
